<mxfile host="app.diagrams.net" agent="Mozilla/5.0 (Macintosh; Intel Mac OS X 10_15_7) AppleWebKit/537.36 (KHTML, like Gecko) Chrome/130.0.0.0 Safari/537.36" version="24.8.4">
  <diagram name="Seite-1" id="FEdRrBYkPl8tIAChflbf">
    <mxGraphModel dx="1463" dy="415" grid="1" gridSize="10" guides="1" tooltips="1" connect="1" arrows="1" fold="1" page="1" pageScale="1" pageWidth="827" pageHeight="1169" math="0" shadow="0">
      <root>
        <mxCell id="0" />
        <mxCell id="1" parent="0" />
        <mxCell id="1E_OV-rdz6yM60AN6XEw-1" value="&lt;p style=&quot;margin:0px;margin-top:4px;margin-left:10px;text-align:left;&quot;&gt;&lt;b&gt;ibd&lt;/b&gt; [Block] 3D-Printing Subsystem [Flow oriented view]&lt;br&gt;&lt;/p&gt;" style="html=1;shape=mxgraph.sysml.package;labelX=350;align=left;spacingLeft=10;overflow=fill;recursiveResize=0;" parent="1" vertex="1">
          <mxGeometry x="-140" y="90" width="420" height="360" as="geometry" />
        </mxCell>
        <mxCell id="1E_OV-rdz6yM60AN6XEw-2" value="Network Hardware" style="strokeColor=inherit;fillColor=inherit;gradientColor=inherit;shape=rect;fontStyle=1;html=1;whiteSpace=wrap;align=center;" parent="1E_OV-rdz6yM60AN6XEw-1" vertex="1">
          <mxGeometry x="40" y="115" width="100" height="50" as="geometry" />
        </mxCell>
        <mxCell id="1E_OV-rdz6yM60AN6XEw-3" value="3D-Printer" style="strokeColor=inherit;fillColor=inherit;gradientColor=inherit;shape=rect;fontStyle=1;html=1;whiteSpace=wrap;align=center;" parent="1E_OV-rdz6yM60AN6XEw-1" vertex="1">
          <mxGeometry x="40" y="235" width="100" height="50" as="geometry" />
        </mxCell>
        <mxCell id="1E_OV-rdz6yM60AN6XEw-4" value="" style="strokeColor=inherit;fillColor=inherit;gradientColor=inherit;align=right;html=1;verticalAlign=bottom;endArrow=none;startArrow=diamondThin;startSize=14;startFill=0;edgeStyle=none;endFill=0;labelBackgroundColor=none;rounded=0;" parent="1E_OV-rdz6yM60AN6XEw-1" source="1E_OV-rdz6yM60AN6XEw-2" target="1E_OV-rdz6yM60AN6XEw-3" edge="1">
          <mxGeometry x="1" relative="1" as="geometry" />
        </mxCell>
        <mxCell id="1E_OV-rdz6yM60AN6XEw-5" value="1" style="resizable=0;html=1;align=left;verticalAlign=top;labelBackgroundColor=none;fontSize=10" parent="1E_OV-rdz6yM60AN6XEw-4" connectable="0" vertex="1">
          <mxGeometry x="-1" relative="1" as="geometry">
            <mxPoint x="5" as="offset" />
          </mxGeometry>
        </mxCell>
        <mxCell id="1E_OV-rdz6yM60AN6XEw-6" value="1..*" style="resizable=0;html=1;align=right;verticalAlign=top;labelBackgroundColor=none;fontSize=10" parent="1E_OV-rdz6yM60AN6XEw-4" connectable="0" vertex="1">
          <mxGeometry x="1" relative="1" as="geometry">
            <mxPoint x="25" y="-20" as="offset" />
          </mxGeometry>
        </mxCell>
        <mxCell id="1E_OV-rdz6yM60AN6XEw-17" value="MES" style="html=1;shape=mxgraph.sysml.port1;fontStyle=1;whiteSpace=wrap;align=center;" parent="1" vertex="1">
          <mxGeometry x="270" y="150" width="110" height="40" as="geometry" />
        </mxCell>
        <mxCell id="1E_OV-rdz6yM60AN6XEw-18" value="&lt;div&gt;&amp;lt;&amp;lt;proxy&amp;gt;&amp;gt;&lt;/div&gt;&lt;div&gt;data&lt;/div&gt;" style="strokeColor=inherit;fillColor=inherit;gradientColor=inherit;shape=rect;points=[[0,0.5,0]];html=1;resizable=1;align=right;verticalAlign=bottom;labelPosition=left;verticalLabelPosition=top;labelBackgroundColor=none;fontSize=10;part=1;" parent="1E_OV-rdz6yM60AN6XEw-17" vertex="1">
          <mxGeometry y="13.333333333333336" width="13.749999999999998" height="13.333333333333336" as="geometry" />
        </mxCell>
        <mxCell id="1E_OV-rdz6yM60AN6XEw-25" style="edgeStyle=orthogonalEdgeStyle;rounded=0;orthogonalLoop=1;jettySize=auto;html=1;exitX=0;exitY=0.5;exitDx=0;exitDy=0;exitPerimeter=0;entryX=0.5;entryY=0;entryDx=0;entryDy=0;startArrow=classic;startFill=1;" parent="1" source="1E_OV-rdz6yM60AN6XEw-18" target="1E_OV-rdz6yM60AN6XEw-2" edge="1">
          <mxGeometry relative="1" as="geometry" />
        </mxCell>
        <mxCell id="1E_OV-rdz6yM60AN6XEw-23" value="&lt;div&gt;&lt;span style=&quot;background-color: initial;&quot;&gt;Logistics&lt;/span&gt;&lt;/div&gt;" style="html=1;shape=mxgraph.sysml.port1;fontStyle=1;whiteSpace=wrap;align=center;" parent="1" vertex="1">
          <mxGeometry x="270" y="265" width="120" height="110" as="geometry" />
        </mxCell>
        <mxCell id="1E_OV-rdz6yM60AN6XEw-24" value="&amp;lt;&amp;lt;full&amp;gt;&amp;gt;&lt;br&gt;materials" style="strokeColor=inherit;fillColor=inherit;gradientColor=inherit;shape=rect;points=[[0,0.5,0]];html=1;resizable=1;align=right;verticalAlign=bottom;labelPosition=left;verticalLabelPosition=top;labelBackgroundColor=none;fontSize=10;paart=1;" parent="1E_OV-rdz6yM60AN6XEw-23" vertex="1">
          <mxGeometry y="20" width="15" height="13.33" as="geometry" />
        </mxCell>
        <mxCell id="1E_OV-rdz6yM60AN6XEw-29" value="&amp;lt;&amp;lt;full&amp;gt;&amp;gt;&lt;br&gt;products" style="strokeColor=inherit;fillColor=inherit;gradientColor=inherit;shape=rect;points=[[0,0.5,0]];html=1;resizable=1;align=right;verticalAlign=bottom;labelPosition=left;verticalLabelPosition=top;labelBackgroundColor=none;fontSize=10;paart=1;" parent="1E_OV-rdz6yM60AN6XEw-23" vertex="1">
          <mxGeometry y="90" width="15" height="13.33" as="geometry" />
        </mxCell>
        <mxCell id="1E_OV-rdz6yM60AN6XEw-28" style="edgeStyle=orthogonalEdgeStyle;rounded=0;orthogonalLoop=1;jettySize=auto;html=1;exitX=1;exitY=0.25;exitDx=0;exitDy=0;entryX=0;entryY=0.5;entryDx=0;entryDy=0;entryPerimeter=0;startArrow=classic;startFill=1;endArrow=none;endFill=0;" parent="1" source="1E_OV-rdz6yM60AN6XEw-3" target="1E_OV-rdz6yM60AN6XEw-24" edge="1">
          <mxGeometry relative="1" as="geometry" />
        </mxCell>
        <mxCell id="1E_OV-rdz6yM60AN6XEw-30" style="edgeStyle=orthogonalEdgeStyle;rounded=0;orthogonalLoop=1;jettySize=auto;html=1;exitX=1;exitY=0.75;exitDx=0;exitDy=0;entryX=0;entryY=0.5;entryDx=0;entryDy=0;entryPerimeter=0;" parent="1" source="1E_OV-rdz6yM60AN6XEw-3" target="1E_OV-rdz6yM60AN6XEw-29" edge="1">
          <mxGeometry relative="1" as="geometry" />
        </mxCell>
      </root>
    </mxGraphModel>
  </diagram>
</mxfile>
